<svg xmlns="http://www.w3.org/2000/svg" viewBox="0 0 247 51" fill="none">
  <!-- Concept 18: Gradient Wordmark - burn.dev style, rounded paths | Nunito Black -->
  <defs>
    <linearGradient id="lg18" x1="0%" y1="50%" x2="100%" y2="50%">
      <stop offset="0%" stop-color="#10b981"/>
      <stop offset="60%" stop-color="#8b5cf6"/>
      <stop offset="100%" stop-color="#a855f7"/>
    </linearGradient>
  </defs>

  <path fill-rule="evenodd" clip-rule="evenodd" d="M9.69 44.76Q8.51 44.76 7.71 44.21Q6.91 43.66 6.72 42.69Q6.53 41.72 7.06 40.5L16.53 20.14Q17.21 18.65 18.22 17.97Q19.22 17.29 20.52 17.29Q21.81 17.29 22.78 17.97Q23.75 18.65 24.47 20.14L33.93 40.5Q34.54 41.72 34.37 42.71Q34.2 43.7 33.42 44.23Q32.64 44.76 31.5 44.76Q29.98 44.76 29.16 44.08Q28.34 43.39 27.7 41.87L25.65 37.05L28.31 38.98H12.65L15.35 37.05L13.3 41.87Q12.61 43.39 11.89 44.08Q11.17 44.76 9.69 44.76ZM20.44 24.92 16.03 35.45 14.97 33.63H26.03L24.96 35.45L20.52 24.92Z M40.92 44.76Q39.25 44.76 38.34 43.83Q37.43 42.9 37.43 41.23V21.16Q37.43 19.45 38.36 18.54Q39.29 17.63 40.96 17.63H50.31Q54.87 17.63 57.36 19.85Q59.85 22.07 59.85 26.03Q59.85 28.57 58.73 30.45Q57.6 32.33 55.49 33.34Q53.39 34.35 50.31 34.35L50.61 33.66H52.44Q54.07 33.66 55.32 34.44Q56.58 35.22 57.41 36.82L59.31 40.24Q59.92 41.34 59.88 42.38Q59.85 43.43 59.07 44.09Q58.29 44.76 56.81 44.76Q55.32 44.76 54.39 44.15Q53.46 43.54 52.74 42.25L49.28 35.91Q48.83 35.07 48.12 34.75Q47.42 34.42 46.51 34.42H44.42V41.23Q44.42 42.9 43.54 43.83Q42.67 44.76 40.92 44.76ZM44.42 29.48H49.05Q51.07 29.48 52.13 28.69Q53.2 27.89 53.2 26.22Q53.2 24.62 52.13 23.8Q51.07 22.99 49.05 22.99H44.42Z M67.75 44.76Q66.08 44.76 65.17 43.83Q64.25 42.9 64.25 41.19V20.86Q64.25 19.11 65.17 18.2Q66.08 17.29 67.75 17.29Q69.46 17.29 70.35 18.2Q71.25 19.11 71.25 20.86V41.19Q71.25 42.9 70.37 43.83Q69.5 44.76 67.75 44.76Z M79.38 44.76Q77.78 44.76 76.95 43.92Q76.11 43.09 76.11 41.45V20.74Q76.11 19.07 76.95 18.18Q77.78 17.29 79.15 17.29Q80.37 17.29 81.05 17.74Q81.73 18.2 82.57 19.26L94.62 34.31H93.55V20.55Q93.55 18.96 94.37 18.12Q95.19 17.29 96.78 17.29Q98.38 17.29 99.19 18.12Q100.01 18.96 100.01 20.55V41.61Q100.01 43.05 99.25 43.91Q98.49 44.76 97.2 44.76Q95.91 44.76 95.17 44.28Q94.43 43.81 93.59 42.78L81.54 27.7H82.61V41.45Q82.61 43.09 81.79 43.92Q80.97 44.76 79.38 44.76Z M116.77 44.84Q113.84 44.84 111.6 44.09Q109.36 43.35 107.82 41.87Q106.28 40.39 105.5 38.17Q104.72 35.94 104.72 33.02V20.82Q104.72 19.07 105.64 18.18Q106.55 17.29 108.22 17.29Q109.93 17.29 110.82 18.18Q111.72 19.07 111.72 20.82V33.09Q111.72 36.02 113.01 37.5Q114.3 38.98 116.77 38.98Q119.2 38.98 120.49 37.5Q121.79 36.02 121.79 33.09V20.82Q121.79 19.07 122.68 18.18Q123.57 17.29 125.24 17.29Q126.92 17.29 127.79 18.18Q128.66 19.07 128.66 20.82V33.02Q128.66 36.93 127.31 39.57Q125.97 42.21 123.31 43.52Q120.65 44.84 116.77 44.84Z M143.14 44.76Q141.47 44.76 140.56 43.83Q139.65 42.9 139.65 41.23V23.33H133.68Q132.27 23.33 131.53 22.59Q130.79 21.85 130.79 20.48Q130.79 19.07 131.53 18.35Q132.27 17.63 133.68 17.63H152.6Q154.01 17.63 154.75 18.35Q155.49 19.07 155.49 20.48Q155.49 21.85 154.75 22.59Q154.01 23.33 152.6 23.33H146.64V41.23Q146.64 42.9 145.76 43.83Q144.89 44.76 143.14 44.76Z M161.31 44.76Q159.63 44.76 158.72 43.83Q157.81 42.9 157.81 41.23V21.16Q157.81 19.45 158.74 18.54Q159.67 17.63 161.34 17.63H170.69Q175.25 17.63 177.74 19.96Q180.23 22.3 180.23 26.41Q180.23 30.51 177.74 32.85Q175.25 35.18 170.69 35.18H164.8V41.23Q164.8 42.9 163.93 43.83Q163.05 44.76 161.31 44.76ZM164.8 29.83H169.48Q171.45 29.83 172.52 28.97Q173.58 28.12 173.58 26.41Q173.58 24.66 172.52 23.82Q171.45 22.99 169.48 22.99H164.8Z M184.75 44.76Q183.57 44.76 182.78 44.21Q181.98 43.66 181.79 42.69Q181.6 41.72 182.13 40.5L191.59 20.14Q192.28 18.65 193.28 17.97Q194.29 17.29 195.58 17.29Q196.87 17.29 197.84 17.97Q198.81 18.65 199.53 20.14L209 40.5Q209.6 41.72 209.43 42.71Q209.26 43.7 208.48 44.23Q207.7 44.76 206.56 44.76Q205.04 44.76 204.23 44.08Q203.41 43.39 202.76 41.87L200.71 37.05L203.37 38.98H187.72L190.41 37.05L188.36 41.87Q187.68 43.39 186.96 44.08Q186.23 44.76 184.75 44.76ZM195.51 24.92 191.1 35.45 190.03 33.63H201.09L200.03 35.45L195.58 24.92Z M215.72 44.76Q214.2 44.76 213.38 43.92Q212.57 43.09 212.57 41.57V20.48Q212.57 18.92 213.44 18.1Q214.32 17.29 215.91 17.29Q217.24 17.29 218.02 17.8Q218.8 18.31 219.45 19.49L227.62 34.16H226.29L234.42 19.49Q235.1 18.31 235.88 17.8Q236.66 17.29 237.99 17.29Q239.51 17.29 240.33 18.1Q241.14 18.92 241.14 20.48V41.57Q241.14 43.09 240.35 43.92Q239.55 44.76 237.99 44.76Q236.47 44.76 235.65 43.92Q234.84 43.09 234.84 41.57V28.5H235.63L229.52 39.14Q228.98 39.97 228.4 40.39Q227.81 40.81 226.82 40.81Q225.87 40.81 225.26 40.39Q224.65 39.97 224.16 39.14L218 28.46H218.88V41.57Q218.88 43.09 218.08 43.92Q217.28 44.76 215.72 44.76Z" fill="url(#lg18)"/>
</svg>